<svg width="30" height="30" viewBox="0 0 30 30" fill="none" xmlns="http://www.w3.org/2000/svg">
<g id="fluent:cloud-error-48-regular">
<path id="Vector" d="M14.9 4.19922C11.4572 4.19922 8.63 6.83502 8.327 10.1992H8.15C6.91674 10.1992 5.734 10.6891 4.86195 11.5612C3.98991 12.4332 3.5 13.616 3.5 14.8492C3.5 16.0825 3.98991 17.2652 4.86195 18.1373C5.734 19.0093 6.91674 19.4992 8.15 19.4992H12.5516C12.61 18.9897 12.7187 18.4873 12.8762 17.9992H8.15C7.31457 17.9992 6.51335 17.6673 5.92261 17.0766C5.33187 16.4859 5 15.6847 5 14.8492C5 14.0138 5.33187 13.2126 5.92261 12.6218C6.51335 12.0311 7.31457 11.6992 8.15 11.6992H9.05C9.464 11.6992 9.8 11.3632 9.8 10.9492V10.7992C9.8 9.44661 10.3373 8.14941 11.2938 7.19297C12.2502 6.23654 13.5474 5.69922 14.9 5.69922C16.2526 5.69922 17.5498 6.23654 18.5062 7.19297C19.4627 8.14941 20 9.44661 20 10.7992V10.9492C20 11.3632 20.336 11.6992 20.75 11.6992H21.65C22.3258 11.6992 22.9836 11.9165 23.5265 12.3189C24.0694 12.7213 24.4685 13.2876 24.665 13.9342C25.265 14.3398 25.805 14.827 26.27 15.379C26.3447 14.7279 26.2809 14.0684 26.0828 13.4436C25.8847 12.8189 25.5567 12.2431 25.1205 11.754C24.6843 11.2649 24.1496 10.8736 23.5515 10.6056C22.9534 10.3377 22.3054 10.1992 21.65 10.1992H21.473C21.17 6.83502 18.3428 4.19922 14.9 4.19922ZM26.9 20.3992C26.9 24.0442 23.945 26.9992 20.3 26.9992C16.655 26.9992 13.7 24.0442 13.7 20.3992C13.7 16.7542 16.655 13.7992 20.3 13.7992C23.945 13.7992 26.9 16.7542 26.9 20.3992ZM20.9 16.7992C20.9 16.6401 20.8368 16.4875 20.7243 16.375C20.6117 16.2624 20.4591 16.1992 20.3 16.1992C20.1409 16.1992 19.9883 16.2624 19.8757 16.375C19.7632 16.4875 19.7 16.6401 19.7 16.7992V21.5992C19.7 21.7583 19.7632 21.911 19.8757 22.0235C19.9883 22.136 20.1409 22.1992 20.3 22.1992C20.4591 22.1992 20.6117 22.136 20.7243 22.0235C20.8368 21.911 20.9 21.7583 20.9 21.5992V16.7992ZM20.3 24.7492C20.4989 24.7492 20.6897 24.6702 20.8303 24.5295C20.971 24.3889 21.05 24.1981 21.05 23.9992C21.05 23.8003 20.971 23.6095 20.8303 23.4689C20.6897 23.3282 20.4989 23.2492 20.3 23.2492C20.1011 23.2492 19.9103 23.3282 19.7697 23.4689C19.629 23.6095 19.55 23.8003 19.55 23.9992C19.55 24.1981 19.629 24.3889 19.7697 24.5295C19.9103 24.6702 20.1011 24.7492 20.3 24.7492Z" fill="white"/>
</g>
</svg>
