<svg width="256" height="86" viewBox="0 0 256 86" fill="none" xmlns="http://www.w3.org/2000/svg">
<g id="Frame 427320256">
<g id="Group 108612">
<g id="Group 1044">
<g id="Master/Spot Illustration/Mailing List">
<path id="Floor" opacity="0.5" d="M146.795 85.9984C182.807 85.9984 212.001 84.9424 212.001 83.6398C212.001 82.3372 182.807 81.2812 146.795 81.2812C110.783 81.2812 81.5898 82.3372 81.5898 83.6398C81.5898 84.9424 110.783 85.9984 146.795 85.9984Z" fill="#D5ECFF"/>
<g id="Opened Mail">
<path id="Rectangle" fill-rule="evenodd" clip-rule="evenodd" d="M139.441 0L188.852 30.9654L140.528 53.6725L91.1172 29.8788L139.441 0Z" fill="#5589EE"/>
<g id="Paper">
<path id="Rectangle_2" d="M179.845 18.0859H100.23V79.2465H179.845V18.0859Z" fill="#CCDDFF"/>
<path id="Rectangle Copy 38" d="M100.23 18.0859H179.845V75.18C179.845 77.4259 178.022 79.2465 175.774 79.2465H100.23V18.0859Z" fill="#F6F8FB"/>
<g id="Writing">
<path id="Rectangle Copy 11" d="M173.187 25.1523H107.098V26.1274H173.187V25.1523Z" fill="#6698FA"/>
<path id="Rectangle Copy 42" d="M173.187 46.7812H107.098V47.7563H173.187V46.7812Z" fill="#6698FA"/>
<path id="Rectangle Copy 39" d="M173.187 30.5586H107.098V31.5337H173.187V30.5586Z" fill="#6698FA"/>
<path id="Rectangle Copy 43" d="M173.187 52.1914H107.098V53.1665H173.187V52.1914Z" fill="#6698FA"/>
<path id="Rectangle Copy 40" d="M173.187 35.9648H107.098V36.9399H173.187V35.9648Z" fill="#6698FA"/>
<path id="Rectangle Copy 44" d="M173.187 57.5977H107.098V58.5727H173.187V57.5977Z" fill="#6698FA"/>
<path id="Rectangle Copy 41" d="M173.187 41.3711H107.098V42.3462H173.187V41.3711Z" fill="#6698FA"/>
<path id="Rectangle Copy 45" d="M173.187 63.0039H107.098V63.979H173.187V63.0039Z" fill="#6698FA"/>
<path id="Rectangle Copy 46" d="M173.186 70.8906H142.168V71.8657H173.186V70.8906Z" fill="#6698FA"/>
</g>
</g>
<path id="Combined Shape" fill-rule="evenodd" clip-rule="evenodd" d="M91.1517 29.8828H91.1133V83.2357H188.962V29.8828H187.087L188.854 30.9893L140.53 53.6862L91.1191 29.9031L91.1517 29.8828Z" fill="#345CE1"/>
<path id="Path 5" fill-rule="evenodd" clip-rule="evenodd" d="M91.1133 83.2357L140.485 53.6862L91.1133 29.8828V83.2357Z" fill="#345CE1"/>
</g>
</g>
<rect id="Rectangle 5730" x="62.2305" y="44.4258" width="46.2402" height="4.01024" rx="2.00512" fill="#CCDDFF"/>
<rect id="Rectangle 5731" x="86.3125" y="55.8125" width="32.5929" height="4.01024" rx="2.00512" fill="#CCDDFF"/>
<rect id="Rectangle 5732" x="42" y="55.8125" width="39.4969" height="4.01024" rx="2.00512" fill="#CCDDFF"/>
<rect id="Rectangle 5733" x="60.4648" y="67.2031" width="53.1441" height="4.01024" rx="2.00512" fill="#CCDDFF"/>
</g>
</g>
</g>
</svg>
